<svg id="Capa_1" data-name="Capa 1" xmlns="http://www.w3.org/2000/svg" viewBox="0 0 849 403"><defs><style>.cls-1{fill:#fcee21;}</style></defs><title>Gora amarillo fondo negro</title><rect width="849" height="403"/><path class="cls-1" d="M207.28,42.49H147.72A52.72,52.72,0,0,0,95,95.21V295.76A52.74,52.74,0,0,0,135.3,347h61.35c8.29-2,20.69-6.23,21.35-13.51.05-.54.11-1,.18-1.36L224.8,347h.4l.3-.67V347h34V303a53.37,53.37,0,0,0,.5-7.19V155.49h-.5V155h-84v38h15.08V303.72a12.76,12.76,0,0,1-12.76,12.77h-.64a12.76,12.76,0,0,1-12.76-12.77V88.25a12.76,12.76,0,0,1,12.76-12.76h.64a12.76,12.76,0,0,1,12.76,12.76v44.24H260V95.21A52.72,52.72,0,0,0,207.28,42.49Z" transform="translate(-38)"/><path class="cls-1" d="M397.8,42H344.2c-30.61,2.35-54.7,27.37-54.7,57.92v190c0,28.44,20.89,52.1,48.47,57.12H404c27.58-5,48.47-28.68,48.47-57.12v-190C452.5,69.37,428.41,44.35,397.8,42ZM384.5,293.71a15.5,15.5,0,0,1-31,0V93.16a15.5,15.5,0,0,1,31,0Z" transform="translate(-38)"/><path class="cls-1" d="M628.14,185.86l-.64.09v-1.58a49.51,49.51,0,0,0,19-39V91.56A49.6,49.6,0,0,0,598.73,42H487v0h-2.5V347H550V195h14.43l19.51,139.91h-.1L585.61,347h64.91l-1.83-13.78ZM581,143.24a20.21,20.21,0,0,1-20.22,20.21H549.5v-86h11.28A20.22,20.22,0,0,1,581,97.67Z" transform="translate(-38)"/><path class="cls-1" d="M838.5,253h0v-1.52c-.18-90.14-17.08-168.55-41.88-209.11h-77C695,83,678.32,161.55,678.5,251.8c0,.51,0,1,0,1.52h0l.19,93.68H744c0-42.88.65-83.21,1.74-118.5H772q0,9.19-.22,18c.77,30.77,1.21,64.75,1.23,100.5h65.69Zm-92.2-57.5c1.06-47.23,4.82-84.62,9.63-95.95.84-2.6,1.69-4,2.57-4a1.28,1.28,0,0,1,.89.49c6.05,1.74,11.07,43.74,12.31,99.44Z" transform="translate(-38)"/></svg>